<svg width="18" height="17" viewBox="0 0 18 17" fill="none" xmlns="http://www.w3.org/2000/svg">
<path fill-rule="evenodd" clip-rule="evenodd" d="M7 9C8.873 9 10.57 9.62 11.815 10.487C12.998 11.312 14 12.538 14 13.857C14 14.581 13.691 15.181 13.204 15.627C12.746 16.048 12.148 16.321 11.532 16.507C10.301 16.88 8.68 17 7 17C5.32 17 3.699 16.88 2.468 16.507C1.852 16.321 1.254 16.048 0.795 15.627C0.31 15.182 0 14.582 0 13.858C0 12.539 1.002 11.313 2.185 10.488C3.43 9.62 5.127 9 7 9ZM7 11C5.56 11 4.257 11.48 3.33 12.127C2.341 12.817 2 13.519 2 13.857C2 14.161 2.352 14.351 2.672 14.471L2.877 14.541L3.047 14.593C3.987 14.877 5.367 15 7 15C8.508 15 9.799 14.895 10.728 14.656L11.032 14.569L11.222 14.509C11.565 14.392 12 14.195 12 13.857C12 13.519 11.659 12.817 10.67 12.127C9.744 11.481 8.44 11 7 11ZM14 10C15.044 10 15.992 10.345 16.693 10.833C17.333 11.28 18 12.023 18 12.929C18 14.264 16.703 14.742 15.537 14.909L15.237 14.946L14.948 14.971L14.81 14.979C14.932 14.634 15 14.259 15 13.857C14.9994 13.5578 14.9635 13.2598 14.893 12.969C15.279 12.939 15.596 12.889 15.832 12.818C15.936 12.786 15.842 12.688 15.732 12.603L15.625 12.525L15.549 12.474C15.2488 12.2691 14.9104 12.127 14.554 12.056C14.174 11.296 13.59 10.638 12.968 10.113C13.3069 10.0381 13.6529 10.0002 14 10ZM13.5 4C14.163 4 14.7989 4.26339 15.2678 4.73223C15.7366 5.20107 16 5.83696 16 6.5C16 7.16304 15.7366 7.79893 15.2678 8.26777C14.7989 8.73661 14.163 9 13.5 9C12.837 9 12.2011 8.73661 11.7322 8.26777C11.2634 7.79893 11 7.16304 11 6.5C11 5.83696 11.2634 5.20107 11.7322 4.73223C12.2011 4.26339 12.837 4 13.5 4ZM7 0C8.06087 0 9.07828 0.421427 9.82843 1.17157C10.5786 1.92172 11 2.93913 11 4C11 5.06087 10.5786 6.07828 9.82843 6.82843C9.07828 7.57857 8.06087 8 7 8C5.93913 8 4.92172 7.57857 4.17157 6.82843C3.42143 6.07828 3 5.06087 3 4C3 2.93913 3.42143 1.92172 4.17157 1.17157C4.92172 0.421427 5.93913 0 7 0ZM13.5 6C13.3674 6 13.2402 6.05268 13.1464 6.14645C13.0527 6.24021 13 6.36739 13 6.5C13 6.63261 13.0527 6.75979 13.1464 6.85355C13.2402 6.94732 13.3674 7 13.5 7C13.6326 7 13.7598 6.94732 13.8536 6.85355C13.9473 6.75979 14 6.63261 14 6.5C14 6.36739 13.9473 6.24021 13.8536 6.14645C13.7598 6.05268 13.6326 6 13.5 6ZM7 2C6.46957 2 5.96086 2.21071 5.58579 2.58579C5.21071 2.96086 5 3.46957 5 4C5 4.53043 5.21071 5.03914 5.58579 5.41421C5.96086 5.78929 6.46957 6 7 6C7.53043 6 8.03914 5.78929 8.41421 5.41421C8.78929 5.03914 9 4.53043 9 4C9 3.46957 8.78929 2.96086 8.41421 2.58579C8.03914 2.21071 7.53043 2 7 2Z" fill="#363636"/>
</svg>
