<svg width="20" height="20" viewBox="0 0 20 20" fill="none" xmlns="http://www.w3.org/2000/svg">
<path fill-rule="evenodd" clip-rule="evenodd" d="M8.97501 1.00198C9.03355 1.26056 8.98701 1.5318 8.84562 1.75608C8.70423 1.98035 8.47956 2.1393 8.22101 2.19798C8.02479 2.24263 7.83032 2.29467 7.63801 2.35398C7.51254 2.39272 7.38066 2.40637 7.2499 2.39414C7.11915 2.38191 6.99209 2.34405 6.87597 2.28272C6.75985 2.22138 6.65695 2.13778 6.57314 2.03668C6.48933 1.93558 6.42625 1.81896 6.38751 1.69348C6.34877 1.568 6.33513 1.43612 6.34736 1.30537C6.35958 1.17462 6.39744 1.04756 6.45878 0.931436C6.52011 0.815316 6.60371 0.712414 6.70482 0.628605C6.80592 0.544795 6.92254 0.48172 7.04801 0.44298C7.28801 0.368313 7.53135 0.303313 7.77801 0.24798C7.90612 0.218847 8.03871 0.215243 8.16821 0.237373C8.29771 0.259504 8.42158 0.306935 8.53275 0.376957C8.64391 0.446979 8.74018 0.538219 8.81607 0.645463C8.89196 0.752707 8.94597 0.873854 8.97501 1.00198ZM11.025 1.00198C11.0837 0.743431 11.2426 0.518764 11.4669 0.377374C11.6912 0.235983 11.9624 0.189441 12.221 0.24798C16.675 1.25798 20.001 5.23998 20.001 9.99998C20.001 15.523 15.523 20 10.001 20C5.24001 20 1.25801 16.675 0.248014 12.221C0.196173 11.965 0.246566 11.6988 0.388416 11.4795C0.530266 11.2601 0.752311 11.105 1.00706 11.0473C1.26182 10.9895 1.52905 11.0337 1.75161 11.1705C1.97418 11.3072 2.1344 11.5256 2.19801 11.779C2.51623 13.1727 3.20212 14.4558 4.18431 15.4946C5.16651 16.5334 6.40913 17.29 7.78289 17.6857C9.15665 18.0814 10.6114 18.1018 11.9957 17.7447C13.38 17.3876 14.6433 16.666 15.6542 15.6551C16.6651 14.6442 17.3866 13.3809 17.7437 11.9966C18.1008 10.6123 18.0805 9.15762 17.6847 7.78386C17.289 6.4101 16.5324 5.16748 15.4936 4.18528C14.4548 3.20308 13.1718 2.51719 11.778 2.19898C11.5194 2.14009 11.2948 1.9809 11.1536 1.75642C11.0124 1.53194 10.9661 1.26057 11.025 1.00198ZM4.61401 2.71998C4.70345 2.81627 4.77302 2.92924 4.81876 3.05244C4.8645 3.17564 4.88551 3.30664 4.88059 3.43797C4.87567 3.56929 4.84491 3.69835 4.79008 3.81778C4.73524 3.93721 4.6574 4.04465 4.56101 4.13398C4.41301 4.27065 4.27068 4.41265 4.13401 4.55998C3.95235 4.749 3.70373 4.85912 3.44168 4.86664C3.17962 4.87416 2.9251 4.77846 2.7329 4.60017C2.54071 4.42187 2.42622 4.17523 2.41408 3.91334C2.40194 3.65146 2.49313 3.39529 2.66801 3.19998C2.83801 3.01598 3.01535 2.83831 3.20001 2.66698C3.2963 2.57755 3.40928 2.50797 3.53247 2.46223C3.65567 2.41649 3.78668 2.39548 3.918 2.4004C4.04932 2.40532 4.17839 2.43608 4.29781 2.49092C4.41724 2.54575 4.52469 2.62359 4.61401 2.71998ZM10 3.99998C10.2652 3.99998 10.5196 4.10534 10.7071 4.29287C10.8947 4.48041 11 4.73476 11 4.99998V9.58598L13.707 12.293C13.8892 12.4816 13.99 12.7342 13.9877 12.9964C13.9854 13.2586 13.8802 13.5094 13.6948 13.6948C13.5094 13.8802 13.2586 13.9854 12.9964 13.9877C12.7342 13.9899 12.4816 13.8891 12.293 13.707L9.29301 10.707C9.10546 10.5195 9.00007 10.2652 9.00001 9.99998V4.99998C9.00001 4.73476 9.10537 4.48041 9.29291 4.29287C9.48044 4.10534 9.7348 3.99998 10 3.99998ZM1.69301 6.38798C1.94641 6.46612 2.15839 6.6417 2.28234 6.87611C2.4063 7.11052 2.43208 7.38456 2.35401 7.63798C2.2947 7.83028 2.24266 8.02475 2.19801 8.22098C2.1344 8.47433 1.97418 8.69273 1.75161 8.82947C1.52905 8.96622 1.26182 9.01045 1.00706 8.9527C0.752311 8.89496 0.530266 8.73983 0.388416 8.52048C0.246566 8.30114 0.196173 8.035 0.248014 7.77898C0.304014 7.53231 0.369014 7.28898 0.443014 7.04898C0.521154 6.79559 0.696735 6.58361 0.931145 6.45965C1.16555 6.33569 1.4396 6.30991 1.69301 6.38798Z" fill="#363636"/>
</svg>
